<?xml version="1.0" encoding="UTF-8" standalone="no"?><!-- Generator: Gravit.io --><svg xmlns="http://www.w3.org/2000/svg" xmlns:xlink="http://www.w3.org/1999/xlink" style="isolation:isolate" viewBox="0 0 495 745" width="495pt" height="745pt"><defs><clipPath id="_clipPath_hW2z8kEh4lEZLLE1TLBYZ7GpX2dCM87l"><rect width="495" height="745"/></clipPath></defs><g clip-path="url(#_clipPath_hW2z8kEh4lEZLLE1TLBYZ7GpX2dCM87l)"><rect width="495" height="745" style="fill:rgb(0,0,0)"/><path d=" M 108 148 C 99.104 156.896 95.879 134.638 95 132 C 94.211 129.632 93.407 126.965 94 124 C 96.274 112.629 105.111 104.63 116 101 C 128.046 94.977 143.124 93.605 154 92 C 247.834 78.156 364.829 78.223 386 79 C 401.381 79.564 420.417 72.865 432 83 C 487.018 131.141 409.981 173.629 393 173 C 384.773 172.695 371.53 168.219 372 160 C 374.835 110.388 337.057 120.077 323 116 C 265.017 99.185 214.338 98.392 164 130 C 98.182 171.327 98.441 159.82 108 148 Z " fill="rgb(255,0,247)" fill-opacity="0.5"/><path d=" M 104 197 C 104 197 93 219 93 219 C 88.819 237.118 94.205 217.317 91 228 C 90.303 230.324 89.667 232.667 89 235 C 83.135 252.595 80.968 285.452 90 299 C 106.242 323.363 115.861 330.772 142 336 C 142 336 150 337 150 337 C 170.377 342.094 192.153 345 209 345 C 235.486 345 253.517 345 271 345 C 300.395 345 320.565 341 341 341 C 364.196 341 383.876 335.708 401 330 C 411.103 326.632 424.602 318.486 425 313 C 431.099 228.834 420.604 213.899 410 203 C 396.884 189.519 379.61 231.968 378 237 C 366.637 272.51 350.885 274.186 340 276 C 306.842 281.526 237.375 273.61 207 271 C 188.659 269.424 164.413 279.595 152 266 C 85.892 193.596 153.082 211.01 104 197 Z " fill="rgb(162,0,255)" fill-opacity="0.5"/><path d=" M 104 522 C 104 522 96 497 96 497 C 96 494.333 96.205 491.659 96 489 C 95.87 487.305 95.333 485.667 95 484 C 95 455.202 91.408 428.777 98 409 C 109.028 375.915 131.473 372.127 157 370 C 182.778 367.852 197.148 369 211 369 C 234.044 369 244.923 368 256 368 C 282.617 368 297.463 368.496 311 370 C 331.597 372.289 351.824 372.912 362 378 C 390.419 392.209 403.171 405.642 404 433 C 406.293 508.685 392.812 522.029 384 518 C 372.681 512.826 376.027 494.385 371 483 C 348.773 432.661 354.752 429.292 288 433 C 181.791 438.901 163.652 442.696 152 454 C 144.044 461.718 133.046 527.674 104 522 Z " fill="rgb(162,0,255)" fill-opacity="0.5"/><path d=" M 101 563 C 102.518 567.554 97.264 593.208 95 600 C 95 626.203 93.679 649.075 97 669 C 97.359 671.155 98.253 676.132 99 678 C 110.638 707.096 141.565 705.428 163 709 C 181.173 712.029 193.723 712.636 206 714 C 229.61 716.623 244.474 717.386 259 719 C 281.121 721.458 293.927 721.188 307 720 C 339.135 717.079 359.629 708.581 377 697 C 389.052 688.966 399.844 676.876 400 665 C 401.475 552.917 385.291 570.402 374 589 C 359.118 613.511 365.993 642.847 325 646 C 258.27 651.133 156.976 638.954 149 633 C 149 633 114 567 114 567 L 101 563 Z " fill="rgb(162,0,255)" fill-opacity="0.5"/><circle cx="104.5" cy="178.5" r="39.5" fill="rgb(255,255,255)" fill-opacity="0.76"/><circle cx="380.5" cy="178.5" r="39.5" fill="rgb(255,255,255)" fill-opacity="0.76"/><circle cx="104.97327272685447" cy="543.5" r="39.5" fill="rgb(255,255,255)" fill-opacity="0.76"/><circle cx="380.9732727268545" cy="543.5" r="39.5" fill="rgb(255,255,255)" fill-opacity="0.76"/><path d=" M 249.842 144 C 249.842 144 232.842 139 232.842 139 C 226.645 139.775 224.512 141.332 217.842 144 C 209.614 148.937 206.827 147.597 203.842 147 C 201.189 146.469 199.336 144.713 196.842 144 C 188.629 141.653 182.141 147.294 174.842 148 C 131.499 152.194 118.737 168.994 121.842 181 C 125.714 195.974 144.024 204.568 158.842 209 C 176.91 214.403 295.203 214.012 308.842 210 C 388.482 186.576 364.812 167.915 354.842 161 C 335.081 147.295 287.817 134.008 263.842 142 L 249.842 144 Z " fill="rgb(255,238,0)" fill-opacity="0.5"/><path d=" M 127 546 C 131.603 564.414 138.592 577.531 158 584 C 179.497 591.166 195.289 591.143 211 594 C 235.757 598.501 250.482 596.931 264 595 C 296.586 590.345 352.773 603.587 358 567 C 363.464 528.749 353.832 518.405 345 513 C 291.282 480.127 283.431 508.356 224 519 C 203.306 522.706 178.286 510.033 161 522 L 135 540 L 127 546 Z " fill="rgb(255,238,0)" fill-opacity="0.5"/><path d=" M 252.192 181.691 L 252.192 181.691 L 252.192 181.691 Q 252.192 184.738 250.991 187.072 L 250.991 187.072 L 250.991 187.072 Q 249.789 189.406 247.534 190.666 L 247.534 190.666 L 247.534 190.666 Q 245.278 191.925 242.231 191.925 L 242.231 191.925 L 242.231 191.925 Q 237.602 191.925 235.004 189.103 L 235.004 189.103 L 235.004 189.103 Q 232.407 186.281 232.407 181.3 L 232.407 181.3 L 232.407 181.3 Q 232.407 170.089 244.047 170.089 L 244.047 170.089 L 253.91 170.089 L 253.91 173.019 L 248.715 173.019 L 248.715 173.019 Q 252.192 176.281 252.192 181.691 Z  M 236.039 181.3 L 236.039 181.3 L 236.039 181.3 Q 236.039 185.07 237.651 187.043 L 237.651 187.043 L 237.651 187.043 Q 239.262 189.015 242.328 189.015 L 242.328 189.015 L 242.328 189.015 Q 245.356 189.015 246.977 187.14 L 246.977 187.14 L 246.977 187.14 Q 248.598 185.265 248.598 181.769 L 248.598 181.769 L 248.598 181.769 Q 248.598 176.671 245.278 173.019 L 245.278 173.019 L 244.047 173.019 L 244.047 173.019 Q 239.789 173.019 237.914 175.002 L 237.914 175.002 L 237.914 175.002 Q 236.039 176.984 236.039 181.3 Z " fill="rgb(255,238,0)"/><path d=" M 249.973 552.766 L 249.973 552.766 L 249.973 552.766 Q 249.973 555.813 248.772 558.146 L 248.772 558.146 L 248.772 558.146 Q 247.571 560.48 245.315 561.74 L 245.315 561.74 L 245.315 561.74 Q 243.059 563 240.012 563 L 240.012 563 L 240.012 563 Q 235.383 563 232.785 560.178 L 232.785 560.178 L 232.785 560.178 Q 230.188 557.355 230.188 552.375 L 230.188 552.375 L 230.188 552.375 Q 230.188 541.164 241.828 541.164 L 241.828 541.164 L 251.692 541.164 L 251.692 544.094 L 246.496 544.094 L 246.496 544.094 Q 249.973 547.355 249.973 552.766 Z  M 233.821 552.375 L 233.821 552.375 L 233.821 552.375 Q 233.821 556.145 235.432 558.117 L 235.432 558.117 L 235.432 558.117 Q 237.043 560.09 240.11 560.09 L 240.11 560.09 L 240.11 560.09 Q 243.137 560.09 244.758 558.215 L 244.758 558.215 L 244.758 558.215 Q 246.379 556.34 246.379 552.844 L 246.379 552.844 L 246.379 552.844 Q 246.379 547.746 243.059 544.094 L 243.059 544.094 L 241.828 544.094 L 241.828 544.094 Q 237.571 544.094 235.696 546.076 L 235.696 546.076 L 235.696 546.076 Q 233.821 548.059 233.821 552.375 Z " fill="rgb(255,238,0)"/><path d=" M 100 148 C 100 148 94 123 94 123 C 93.558 120.349 93.442 117.651 93 115 C 92.165 109.989 91.556 111.559 91 106 C 90.834 104.342 91 102.667 91 101 C 87.306 78.839 80.353 50.882 101 44 C 126.371 35.543 141.995 27.874 167 31 C 192.689 34.211 211.109 39 229 39 C 254.902 39 274.12 40.98 292 38 C 318.701 33.55 343.868 39 365 39 C 375.453 39 389.99 40.352 392 45 C 408 82 392 152 392 152 C 391.534 153.108 389.801 154.896 389 154 C 383.39 147.73 381.703 138.085 375 133 C 309.737 83.49 199.084 96.32 163 120 C 131 141 116 152 100 148 Z " fill="rgb(162,0,255)" fill-opacity="0.5"/><path d=" M 91 175 C 91.743 177.97 64.571 183.041 60 185 C 60 185 51 189 51 189 C 47.705 190.647 46.536 192.821 43 194 C 40.462 196.538 23.364 205.456 24 208 C 37.741 262.965 81.188 260.675 108 268 C 155.307 280.924 282.139 303.389 334 286 C 359.747 277.367 393.233 259.098 395 232 C 398.542 177.684 380.715 182.849 373 186 C 356.22 192.854 344.106 209.006 327 215 C 305.433 222.557 185.566 237.122 169 231 C 114.352 210.804 119.854 195.767 117 187 C 115.154 181.33 111.667 176.333 91 175 Z " fill="rgb(255,0,247)" fill-opacity="0.5"/><path d=" M 252.414 81.824 L 252.414 81.824 L 252.414 81.824 Q 253.45 81.824 254.172 81.434 L 254.172 81.434 L 254.172 84.188 L 254.172 84.188 Q 253.215 84.695 251.535 84.695 L 251.535 84.695 L 251.535 84.695 Q 247.102 84.695 247.102 79.578 L 247.102 79.578 L 247.102 65.789 L 238.02 65.789 L 238.02 84.305 L 234.543 84.305 L 234.543 65.789 L 230.188 65.789 L 230.188 64.266 L 233.059 62.86 L 254.778 62.86 L 254.778 65.789 L 250.578 65.789 L 250.578 79.344 L 250.578 79.344 Q 250.578 81.824 252.414 81.824 Z  M 262.777 75.105 L 262.777 89.382 L 261.059 89.382 L 261.059 80.466 L 261.059 80.466 Q 261.059 80.047 261.064 79.568 L 261.064 79.568 L 261.064 79.568 Q 261.068 79.089 261.083 78.616 L 261.083 78.616 L 261.083 78.616 Q 261.098 78.142 261.112 77.708 L 261.112 77.708 L 261.112 77.708 Q 261.127 77.273 261.137 76.941 L 261.137 76.941 L 261.137 76.941 Q 260.971 77.117 260.844 77.244 L 260.844 77.244 L 260.844 77.244 Q 260.717 77.371 260.585 77.488 L 260.585 77.488 L 260.585 77.488 Q 260.453 77.605 260.307 77.737 L 260.307 77.737 L 260.307 77.737 Q 260.16 77.869 259.955 78.045 L 259.955 78.045 L 258.51 79.226 L 257.572 78.025 L 261.313 75.105 L 262.777 75.105 Z " fill-rule="evenodd" fill="rgb(162,0,255)"/><path d=" M 259.842 414.703 L 259.842 414.703 L 259.842 414.703 Q 260.877 414.703 261.6 414.313 L 261.6 414.313 L 261.6 417.067 L 261.6 417.067 Q 260.643 417.574 258.963 417.574 L 258.963 417.574 L 258.963 417.574 Q 254.53 417.574 254.53 412.457 L 254.53 412.457 L 254.53 398.668 L 245.448 398.668 L 245.448 417.184 L 241.971 417.184 L 241.971 398.668 L 237.616 398.668 L 237.616 397.145 L 240.487 395.739 L 262.206 395.739 L 262.206 398.668 L 258.006 398.668 L 258.006 412.223 L 258.006 412.223 Q 258.006 414.703 259.842 414.703 Z  M 270.205 407.984 L 270.205 422.261 L 268.487 422.261 L 268.487 413.345 L 268.487 413.345 Q 268.487 412.926 268.491 412.447 L 268.491 412.447 L 268.491 412.447 Q 268.496 411.968 268.511 411.495 L 268.511 411.495 L 268.511 411.495 Q 268.526 411.021 268.54 410.587 L 268.54 410.587 L 268.54 410.587 Q 268.555 410.152 268.565 409.82 L 268.565 409.82 L 268.565 409.82 Q 268.399 409.996 268.272 410.123 L 268.272 410.123 L 268.272 410.123 Q 268.145 410.25 268.013 410.367 L 268.013 410.367 L 268.013 410.367 Q 267.881 410.484 267.735 410.616 L 267.735 410.616 L 267.735 410.616 Q 267.588 410.748 267.383 410.924 L 267.383 410.924 L 265.938 412.105 L 265 410.904 L 268.74 407.984 L 270.205 407.984 Z " fill-rule="evenodd" fill="rgb(162,0,255)"/><path d=" M 230.34 274.638 L 230.34 276.259 L 221.434 276.259 L 221.434 274.735 L 224.852 271.015 L 224.852 271.015 Q 225.584 270.224 226.16 269.569 L 226.16 269.569 L 226.16 269.569 Q 226.736 268.915 227.142 268.29 L 227.142 268.29 L 227.142 268.29 Q 227.547 267.665 227.762 267.035 L 227.762 267.035 L 227.762 267.035 Q 227.977 266.405 227.977 265.663 L 227.977 265.663 L 227.977 265.663 Q 227.977 265.087 227.811 264.647 L 227.811 264.647 L 227.811 264.647 Q 227.645 264.208 227.337 263.9 L 227.337 263.9 L 227.337 263.9 Q 227.029 263.593 226.609 263.437 L 226.609 263.437 L 226.609 263.437 Q 226.189 263.28 225.672 263.28 L 225.672 263.28 L 225.672 263.28 Q 224.744 263.28 223.997 263.656 L 223.997 263.656 L 223.997 263.656 Q 223.25 264.032 222.576 264.618 L 222.576 264.618 L 221.58 263.456 L 221.58 263.456 Q 221.971 263.104 222.42 262.797 L 222.42 262.797 L 222.42 262.797 Q 222.869 262.489 223.387 262.265 L 223.387 262.265 L 223.387 262.265 Q 223.904 262.04 224.48 261.908 L 224.48 261.908 L 224.48 261.908 Q 225.057 261.776 225.691 261.776 L 225.691 261.776 L 225.691 261.776 Q 226.629 261.776 227.386 262.04 L 227.386 262.04 L 227.386 262.04 Q 228.143 262.304 228.67 262.797 L 228.67 262.797 L 228.67 262.797 Q 229.197 263.29 229.485 263.998 L 229.485 263.998 L 229.485 263.998 Q 229.773 264.706 229.773 265.595 L 229.773 265.595 L 229.773 265.595 Q 229.773 266.425 229.515 267.177 L 229.515 267.177 L 229.515 267.177 Q 229.256 267.929 228.802 268.656 L 228.802 268.656 L 228.802 268.656 Q 228.348 269.384 227.718 270.116 L 227.718 270.116 L 227.718 270.116 Q 227.088 270.849 226.355 271.64 L 226.355 271.64 L 223.611 274.56 L 223.611 274.638 L 230.34 274.638 Z  M 212.557 266.886 L 212.557 266.886 L 212.557 266.886 Q 213.592 266.886 214.315 266.496 L 214.315 266.496 L 214.315 269.249 L 214.315 269.249 Q 213.357 269.757 211.678 269.757 L 211.678 269.757 L 211.678 269.757 Q 207.244 269.757 207.244 264.64 L 207.244 264.64 L 207.244 250.851 L 198.162 250.851 L 198.162 269.367 L 194.686 269.367 L 194.686 250.851 L 190.33 250.851 L 190.33 249.328 L 193.201 247.921 L 214.92 247.921 L 214.92 250.851 L 210.721 250.851 L 210.721 264.406 L 210.721 264.406 Q 210.721 266.886 212.557 266.886 Z " fill-rule="evenodd" fill="rgb(255,0,247)"/></g></svg>
