<svg xmlns="http://www.w3.org/2000/svg" viewBox="0 0 813 728">
  <radialGradient id="_rgradient_0" fx="0.3428571428571425" fy="0.35238095238095246" cx="0.5" cy="0.5" r="0.5" gradientTransform="matrix(57.813,0,0,57.813,397,241.087)" gradientUnits="userSpaceOnUse">
    <stop offset="0%" stop-opacity="1" style="stop-color:rgb(255,255,255)" />
    <stop offset="100%" stop-opacity="1" style="stop-color:rgb(113,113,113)" />
    <stop offset="100%" stop-opacity="1" style="stop-color:rgb(125,33,33)" />
  </radialGradient>
  <circle cx="425.90625" cy="269.9935626377758" r="28.90625" fill="url(#_rgradient_0)" />
  <g opacity="0.5">
    <path d=" M 439.383 246.814 L 491.992 185.994 C 493.372 184.554 484.653 200.544 486.643 200.494 C 488.622 200.454 490.553 201.194 491.992 202.564 C 493.433 203.944 520.763 198.504 520.813 200.494 C 520.852 202.474 502.183 207.404 500.813 208.844 L 450.242 257.174 C 448.862 258.614 446.972 259.444 444.982 259.494 C 443.003 259.534 441.073 258.794 439.633 257.424 C 438.193 256.044 437.362 254.154 437.313 252.164 C 437.273 250.184 438.013 248.254 439.383 246.814 Z " fill="rgb(255,247,0)" />
  </g>
  <g>
    <radialGradient id="_rgradient_1" fx="0.7804878048780495" fy="0.5" cx="0.5" cy="0.5" r="0.5" gradientTransform="matrix(-51.493,51.493,-51.493,-51.493,621.709,128.59)" gradientUnits="userSpaceOnUse">
      <stop offset="0%" stop-opacity="0.8" style="stop-color:rgb(255,255,255)" />
      <stop offset="100%" stop-opacity="0" style="stop-color:rgb(255,255,255)" />
    </radialGradient>
    <path d=" M 595.963 102.844 C 610.172 117.053 610.172 140.126 595.963 154.336 C 581.753 168.546 558.68 168.546 544.47 154.336 C 530.26 140.126 530.26 117.053 544.47 102.844 C 558.68 88.634 581.753 88.634 595.963 102.844 Z " fill="url(#_rgradient_1)" />
    <path d=" M 579.008 137.381 C 581.087 139.461 581.087 142.837 579.008 144.917 C 576.928 146.996 573.552 146.996 571.472 144.917 C 569.393 142.837 569.393 139.461 571.472 137.381 C 573.552 135.302 576.928 135.302 579.008 137.381 Z " fill="rgb(238,235,155)" />
    <path d=" M 561.425 119.798 C 563.504 121.878 563.504 125.254 561.425 127.334 C 559.345 129.413 555.969 129.413 553.889 127.334 C 551.81 125.254 551.81 121.878 553.889 119.798 C 555.969 117.719 559.345 117.719 561.425 119.798 Z " fill="rgb(238,235,155)" />
  </g>
  <g>
    <radialGradient id="_rgradient_2" fx="0.7804878048780495" fy="0.5" cx="0.5" cy="0.5" r="0.5" gradientTransform="matrix(-47.444,46.675,-46.675,-47.444,262.06,330.655)" gradientUnits="userSpaceOnUse">
      <stop offset="0%" stop-opacity="0.8" style="stop-color:rgb(255,255,255)" />
      <stop offset="100%" stop-opacity="0" style="stop-color:rgb(255,255,255)" />
    </radialGradient>
    <path d=" M 238.722 306.933 C 251.603 320.026 251.43 341.113 238.338 353.993 C 225.245 366.873 204.158 366.701 191.278 353.609 C 178.397 340.516 178.57 319.429 191.662 306.549 C 204.755 293.668 225.842 293.841 238.722 306.933 Z " fill="url(#_rgradient_2)" />
    <path d=" M 222.969 338.371 C 224.854 340.287 224.829 343.373 222.913 345.258 C 220.997 347.143 217.911 347.118 216.026 345.202 C 214.141 343.286 214.166 340.2 216.082 338.315 C 217.998 336.43 221.084 336.455 222.969 338.371 Z " fill="rgb(238,235,155)" />
    <path d=" M 207.031 322.171 C 208.916 324.087 208.891 327.172 206.975 329.057 C 205.059 330.942 201.973 330.917 200.088 329.001 C 198.203 327.085 198.228 323.999 200.144 322.114 C 202.06 320.229 205.146 320.255 207.031 322.171 Z " fill="rgb(238,235,155)" />
  </g>
  <radialGradient id="_rgradient_3" fx="0.3428571428571425" fy="0.35238095238095246" cx="0.5" cy="0.5" r="0.5" gradientTransform="matrix(105,0,0,105,110,567)" gradientUnits="userSpaceOnUse">
    <stop offset="0%" stop-opacity="1" style="stop-color:rgb(171,112,223)" />
    <stop offset="100%" stop-opacity="1" style="stop-color:rgb(93,19,157)" />
  </radialGradient>
  <circle cx="162.5" cy="619.5" r="52.5" fill="url(#_rgradient_3)" />
  <line x1="162.5" y1="414" x2="162.5" y2="568" stroke-width="20" stroke="rgb(255,247,0)" stroke-opacity="0.5" stroke-linejoin="round" stroke-linecap="round" stroke-miterlimit="3" />
  <radialGradient id="_rgradient_4" fx="0.3428571428571425" fy="0.35238095238095246" cx="0.5" cy="0.5" r="0.5" gradientTransform="matrix(105,0,0,105,110,309)" gradientUnits="userSpaceOnUse">
    <stop offset="0%" stop-opacity="1" style="stop-color:rgb(171,112,223)" />
    <stop offset="100%" stop-opacity="1" style="stop-color:rgb(93,19,157)" />
  </radialGradient>
  <circle cx="162.5" cy="361.5" r="52.5" fill="url(#_rgradient_4)" />
  <radialGradient id="_rgradient_5" fx="0.3428571428571425" fy="0.35238095238095246" cx="0.5" cy="0.5" r="0.5" gradientTransform="matrix(105,0,0,105,469.812,119.565)" gradientUnits="userSpaceOnUse">
    <stop offset="0%" stop-opacity="1" style="stop-color:rgb(223,112,112)" />
    <stop offset="100%" stop-opacity="1" style="stop-color:rgb(125,33,33)" />
    <stop offset="100%" stop-opacity="1" style="stop-color:rgb(93,19,157)" />
  </radialGradient>
  <circle cx="522.3124999999998" cy="172.06549159063695" r="52.5" fill="url(#_rgradient_5)" />
  <radialGradient id="_rgradient_6" fx="0.3428571428571425" fy="0.35238095238095246" cx="0.5" cy="0.5" r="0.5" gradientTransform="matrix(105,0,0,105,478.134,467)" gradientUnits="userSpaceOnUse">
    <stop offset="0%" stop-opacity="1" style="stop-color:rgb(223,112,112)" />
    <stop offset="100%" stop-opacity="1" style="stop-color:rgb(125,33,33)" />
    <stop offset="100%" stop-opacity="1" style="stop-color:rgb(93,19,157)" />
  </radialGradient>
  <circle cx="530.634237212297" cy="519.5" r="52.5" fill="url(#_rgradient_6)" />
  <line x1="162.5" y1="155" x2="162.5" y2="309" stroke-width="20" stroke="rgb(255,247,0)" stroke-opacity="0.5" stroke-linejoin="round" stroke-linecap="round" stroke-miterlimit="3" />
  <g opacity="0.5">
    <path d=" M 560.433 206.085 L 623.199 274.091 C 624.916 276.116 617.471 274.892 617.252 277.533 C 617.044 280.171 615.781 282.631 613.765 284.345 C 611.739 286.061 609.119 286.901 606.478 286.682 C 603.84 286.473 605.348 298.595 603.634 296.579 L 545.184 219.033 C 543.467 217.008 542.628 214.388 542.847 211.747 C 543.055 209.109 544.318 206.649 546.334 204.935 C 548.36 203.218 550.979 202.379 553.62 202.598 C 556.259 202.806 558.719 204.069 560.433 206.085 Z " fill="rgb(255,247,0)" />
  </g>
  <radialGradient id="_rgradient_7" fx="0.3428571428571425" fy="0.35238095238095246" cx="0.5" cy="0.5" r="0.5" gradientTransform="matrix(105,0,0,105,110,51)" gradientUnits="userSpaceOnUse">
    <stop offset="0%" stop-opacity="1" style="stop-color:rgb(171,112,223)" />
    <stop offset="100%" stop-opacity="1" style="stop-color:rgb(93,19,157)" />
  </radialGradient>
  <circle cx="162.5" cy="103.5" r="52.5" fill="url(#_rgradient_7)" />
  <g>
    <radialGradient id="_rgradient_8" fx="0.7804878048780495" fy="0.5" cx="0.5" cy="0.5" r="0.5" gradientTransform="matrix(82,0,0,82,41,320.5)" gradientUnits="userSpaceOnUse">
      <stop offset="0%" stop-opacity="0.8" style="stop-color:rgb(255,255,255)" />
      <stop offset="100%" stop-opacity="0" style="stop-color:rgb(255,255,255)" />
    </radialGradient>
    <circle cx="81.99999999999994" cy="361.5" r="41" fill="url(#_rgradient_8)" />
    <circle cx="88" cy="347.5" r="6" fill="rgb(238,235,155)" />
    <circle cx="88" cy="375.5" r="6" fill="rgb(238,235,155)" />
  </g>
  <g>
    <radialGradient id="_rgradient_9" fx="0.7804878048780495" fy="0.5" cx="0.5" cy="0.5" r="0.5" gradientTransform="matrix(0,82,-82,0,571.634,398.25)" gradientUnits="userSpaceOnUse">
      <stop offset="0%" stop-opacity="0.8" style="stop-color:rgb(255,255,255)" />
      <stop offset="100%" stop-opacity="0" style="stop-color:rgb(255,255,255)" />
    </radialGradient>
    <path d=" M 530.634 398.25 C 553.263 398.25 571.634 416.621 571.634 439.25 C 571.634 461.879 553.263 480.25 530.634 480.25 C 508.006 480.25 489.634 461.879 489.634 439.25 C 489.634 416.621 508.006 398.25 530.634 398.25 Z " fill="url(#_rgradient_9)" />
    <path d=" M 544.634 439.25 C 547.946 439.25 550.634 441.939 550.634 445.25 C 550.634 448.561 547.946 451.25 544.634 451.25 C 541.323 451.25 538.634 448.561 538.634 445.25 C 538.634 441.939 541.323 439.25 544.634 439.25 Z " fill="rgb(238,235,155)" />
    <path d=" M 516.634 439.25 C 519.946 439.25 522.634 441.939 522.634 445.25 C 522.634 448.561 519.946 451.25 516.634 451.25 C 513.323 451.25 510.634 448.561 510.634 445.25 C 510.634 441.939 513.323 439.25 516.634 439.25 Z " fill="rgb(238,235,155)" />
  </g>
  <g>
    <radialGradient id="_rgradient_10" fx="0.7804878048780495" fy="0.5" cx="0.5" cy="0.5" r="0.5" gradientTransform="matrix(0,-82,-82,0,571.634,640.75)" gradientUnits="userSpaceOnUse">
      <stop offset="0%" stop-opacity="0.8" style="stop-color:rgb(255,255,255)" />
      <stop offset="100%" stop-opacity="0" style="stop-color:rgb(255,255,255)" />
    </radialGradient>
    <path d=" M 530.634 640.75 C 553.263 640.75 571.634 622.379 571.634 599.75 C 571.634 577.121 553.263 558.75 530.634 558.75 C 508.006 558.75 489.634 577.121 489.634 599.75 C 489.634 622.379 508.006 640.75 530.634 640.75 Z " fill="url(#_rgradient_10)" />
    <path d=" M 544.634 599.75 C 547.946 599.75 550.634 597.061 550.634 593.75 C 550.634 590.439 547.946 587.75 544.634 587.75 C 541.323 587.75 538.634 590.439 538.634 593.75 C 538.634 597.061 541.323 599.75 544.634 599.75 Z " fill="rgb(238,235,155)" />
    <path d=" M 516.634 599.75 C 519.946 599.75 522.634 597.061 522.634 593.75 C 522.634 590.439 519.946 587.75 516.634 587.75 C 513.323 587.75 510.634 590.439 510.634 593.75 C 510.634 597.061 513.323 599.75 516.634 599.75 Z " fill="rgb(238,235,155)" />
  </g>
  <g>
    <radialGradient id="_rgradient_11" fx="0.7804878048780495" fy="0.5" cx="0.5" cy="0.5" r="0.5" gradientTransform="matrix(66.483,66.483,-66.483,66.483,467.304,57.518)" gradientUnits="userSpaceOnUse">
      <stop offset="0%" stop-opacity="0.8" style="stop-color:rgb(255,255,255)" />
      <stop offset="100%" stop-opacity="0" style="stop-color:rgb(255,255,255)" />
    </radialGradient>
    <path d=" M 434.062 90.76 C 452.409 72.413 482.199 72.413 500.546 90.76 C 518.892 109.107 518.892 138.897 500.546 157.243 C 482.199 175.59 452.409 175.59 434.062 157.243 C 415.716 138.897 415.716 109.107 434.062 90.76 Z " fill="url(#_rgradient_11)" />
    <path d=" M 478.655 112.651 C 481.34 109.966 485.699 109.966 488.384 112.651 C 491.069 115.336 491.069 119.695 488.384 122.38 C 485.699 125.065 481.34 125.065 478.655 122.38 C 475.97 119.695 475.97 115.336 478.655 112.651 Z " fill="rgb(238,235,155)" />
    <path d=" M 455.953 135.352 C 458.638 132.668 462.997 132.668 465.682 135.352 C 468.367 138.037 468.367 142.397 465.682 145.082 C 462.997 147.767 458.638 147.767 455.953 145.082 C 453.268 142.397 453.268 138.037 455.953 135.352 Z " fill="rgb(238,235,155)" />
  </g>
  <g>
    <radialGradient id="_rgradient_12" fx="0.7804878048780495" fy="0.5" cx="0.5" cy="0.5" r="0.5" gradientTransform="matrix(-63.306,-75.141,75.492,-63.602,192.925,487.157)" gradientUnits="userSpaceOnUse">
      <stop offset="0%" stop-opacity="0.8" style="stop-color:rgb(255,255,255)" />
      <stop offset="100%" stop-opacity="0" style="stop-color:rgb(255,255,255)" />
    </radialGradient>
    <path d=" M 230.671 455.357 C 209.838 472.908 178.742 470.323 161.272 449.587 C 143.802 428.851 146.532 397.767 167.365 380.215 C 188.197 362.664 219.294 365.249 236.764 385.985 C 254.234 406.721 251.504 437.805 230.671 455.357 Z " fill="url(#_rgradient_12)" />
    <path d=" M 186.129 428.645 C 183.08 431.213 178.53 430.835 175.973 427.8 C 173.416 424.766 173.816 420.217 176.865 417.649 C 179.913 415.08 184.464 415.458 187.021 418.493 C 189.577 421.527 189.178 426.076 186.129 428.645 Z " fill="rgb(238,235,155)" />
    <path d=" M 211.907 406.927 C 208.858 409.496 204.307 409.117 201.751 406.083 C 199.194 403.048 199.594 398.499 202.642 395.931 C 205.691 393.362 210.242 393.741 212.798 396.775 C 215.355 399.81 214.955 404.359 211.907 406.927 Z " fill="rgb(238,235,155)" />
  </g>
  <radialGradient id="_rgradient_13" fx="0.3428571428571425" fy="0.35238095238095246" cx="0.5" cy="0.5" r="0.5" gradientTransform="matrix(78,0,0,78,584.456,257.805)" gradientUnits="userSpaceOnUse">
    <stop offset="0%" stop-opacity="1" style="stop-color:rgb(255,255,255)" />
    <stop offset="100%" stop-opacity="1" style="stop-color:rgb(113,113,113)" />
    <stop offset="100%" stop-opacity="1" style="stop-color:rgb(125,33,33)" />
  </radialGradient>
  <circle cx="623.4559744245942" cy="296.8050709827602" r="39" fill="url(#_rgradient_13)" />
  <radialGradient id="_rgradient_14" fx="0.3428571428571425" fy="0.35238095238095246" cx="0.5" cy="0.5" r="0.5" gradientTransform="matrix(78,0,0,78,313,480.5)" gradientUnits="userSpaceOnUse">
    <stop offset="0%" stop-opacity="1" style="stop-color:rgb(255,255,255)" />
    <stop offset="100%" stop-opacity="1" style="stop-color:rgb(113,113,113)" />
    <stop offset="100%" stop-opacity="1" style="stop-color:rgb(125,33,33)" />
  </radialGradient>
  <circle cx="352.0000000000001" cy="519.5" r="39" fill="url(#_rgradient_14)" />
  <radialGradient id="_rgradient_15" fx="0.3428571428571425" fy="0.35238095238095246" cx="0.5" cy="0.5" r="0.5" gradientTransform="matrix(78,0,0,78,670.268,480.5)" gradientUnits="userSpaceOnUse">
    <stop offset="0%" stop-opacity="1" style="stop-color:rgb(255,255,255)" />
    <stop offset="100%" stop-opacity="1" style="stop-color:rgb(113,113,113)" />
    <stop offset="100%" stop-opacity="1" style="stop-color:rgb(125,33,33)" />
  </radialGradient>
  <circle cx="709.2684744245939" cy="519.5" r="39" fill="url(#_rgradient_15)" />
  <line x1="392.567" y1="519.5" x2="476.567" y2="519.5" stroke-width="20" stroke="rgb(255,247,0)" stroke-opacity="0.5" stroke-linejoin="round" stroke-linecap="round" stroke-miterlimit="3" />
  <line x1="586.268" y1="519.5" x2="670.268" y2="519.5" stroke-width="20" stroke="rgb(255,247,0)" stroke-opacity="0.5" stroke-linejoin="round" stroke-linecap="round" stroke-miterlimit="3" />
</svg>
