<svg xmlns="http://www.w3.org/2000/svg" viewBox="0 0 881 576">
	<radialGradient id="_rgradient_10" fx="0.3793103448275872" fy="0.34482758620689646" cx="0.5" cy="0.5" r="0.5" gradientTransform="matrix(58,0,0,58,159.776,32)" gradientUnits="userSpaceOnUse">
		<stop offset="0%" stop-opacity="1" style="stop-color:rgb(235,235,235)" />
		<stop offset="98.69565217391305%" stop-opacity="1" style="stop-color:rgb(117,117,117)" />
	</radialGradient>
	<circle cx="188.77627127716835" cy="60.99999999999996" r="29" fill="url(#_rgradient_10)" />
	<radialGradient id="_rgradient_11" fx="0.3793103448275872" fy="0.34482758620689646" cx="0.5" cy="0.5" r="0.5" gradientTransform="matrix(58,0,0,58,617.776,59.724)" gradientUnits="userSpaceOnUse">
		<stop offset="0%" stop-opacity="1" style="stop-color:rgb(235,235,235)" />
		<stop offset="98.69565217391305%" stop-opacity="1" style="stop-color:rgb(117,117,117)" />
	</radialGradient>
	<circle cx="646.7762712771683" cy="88.72372872283216" r="29" fill="url(#_rgradient_11)" />
	<radialGradient id="_rgradient_12" fx="0.3793103448275872" fy="0.34482758620689646" cx="0.5" cy="0.5" r="0.5" gradientTransform="matrix(58,0,0,58,617.776,400.276)" gradientUnits="userSpaceOnUse">
		<stop offset="0%" stop-opacity="1" style="stop-color:rgb(235,235,235)" />
		<stop offset="98.69565217391305%" stop-opacity="1" style="stop-color:rgb(117,117,117)" />
	</radialGradient>
	<circle cx="646.7762712771683" cy="429.2762712771677" r="29" fill="url(#_rgradient_12)" />
	<g>
		<radialGradient id="_rgradient_13" fx="0.3793103448275872" fy="0.34482758620689646" cx="0.5" cy="0.5" r="0.5" gradientTransform="matrix(58,0,0,58,447.5,230)" gradientUnits="userSpaceOnUse">
			<stop offset="0%" stop-opacity="1" style="stop-color:rgb(235,235,235)" />
			<stop offset="98.69565217391305%" stop-opacity="1" style="stop-color:rgb(117,117,117)" />
		</radialGradient>
		<circle cx="476.50000000000057" cy="258.99999999999994" r="29" fill="url(#_rgradient_13)" />
		<radialGradient id="_rgradient_14" fx="0.3793103448275872" fy="0.34482758620689646" cx="0.5" cy="0.5" r="0.5" gradientTransform="matrix(58,0,0,58,788.053,230)" gradientUnits="userSpaceOnUse">
			<stop offset="0%" stop-opacity="1" style="stop-color:rgb(235,235,235)" />
			<stop offset="98.69565217391305%" stop-opacity="1" style="stop-color:rgb(117,117,117)" />
		</radialGradient>
		<circle cx="817.0525425543361" cy="258.99999999999994" r="29" fill="url(#_rgradient_14)" />
	</g>
	<radialGradient id="_rgradient_15" fx="0.3793103448275872" fy="0.34482758620689646" cx="0.5" cy="0.5" r="0.5" gradientTransform="matrix(58,0,0,58,324.776,400.276)" gradientUnits="userSpaceOnUse">
		<stop offset="0%" stop-opacity="1" style="stop-color:rgb(235,235,235)" />
		<stop offset="98.69565217391305%" stop-opacity="1" style="stop-color:rgb(117,117,117)" />
	</radialGradient>
	<circle cx="353.77627127716835" cy="429.2762712771678" r="29" fill="url(#_rgradient_15)" />
	<radialGradient id="_rgradient_16" fx="0.3793103448275872" fy="0.34482758620689646" cx="0.5" cy="0.5" r="0.5" gradientTransform="matrix(44,0,0,44,36.776,371)" gradientUnits="userSpaceOnUse">
		<stop offset="0%" stop-opacity="1" style="stop-color:rgb(235,235,235)" />
		<stop offset="98.69565217391305%" stop-opacity="1" style="stop-color:rgb(117,117,117)" />
	</radialGradient>
	<circle cx="58.77627127716835" cy="392.99999999999994" r="21.999999999999975" fill="url(#_rgradient_16)" />
	<path d=" M 68.106 378.6 L 172.896 257 C 173.796 256.03 181.256 257.06 182.586 257 C 183.906 256.95 185.196 257.43 186.176 258.33 C 187.146 259.23 199.716 255.67 199.776 257 C 199.826 258.32 189.676 268.02 188.776 269 L 75.446 385.4 C 74.546 386.37 73.296 386.94 71.966 387 C 70.646 387.05 69.356 386.57 68.376 385.67 C 67.406 384.77 66.836 383.52 66.776 382.19 C 66.726 380.87 67.206 379.58 68.106 378.6 Z " fill="rgb(255,238,0)" fill-opacity="0.49" />
	<radialGradient id="_rgradient_17" fx="0.3199999999999994" fy="0.31999999999999984" cx="0.5" cy="0.5" r="0.5" gradientTransform="matrix(100,0,0,100,140.776,209)" gradientUnits="userSpaceOnUse">
		<stop offset="0%" stop-opacity="1" style="stop-color:rgb(151,151,151)" />
		<stop offset="98.26086956521739%" stop-opacity="1" style="stop-color:rgb(40,40,40)" />
	</radialGradient>
	<circle cx="190.77627127716835" cy="258.99999999999994" r="50" fill="url(#_rgradient_17)" />
	<radialGradient id="_rgradient_18" fx="0.3199999999999994" fy="0.31999999999999984" cx="0.5" cy="0.5" r="0.5" gradientTransform="matrix(100,0,0,100,596.776,209)" gradientUnits="userSpaceOnUse">
		<stop offset="0%" stop-opacity="1" style="stop-color:rgb(151,151,151)" />
		<stop offset="98.26086956521739%" stop-opacity="1" style="stop-color:rgb(40,40,40)" />
	</radialGradient>
	<circle cx="646.7762712771683" cy="258.99999999999994" r="50" fill="url(#_rgradient_18)" />
	<path d=" M 172.896 294.48 C 173.296 291.86 174.726 289.5 176.866 287.94 C 178.996 286.37 181.676 285.71 184.296 286.12 C 186.916 286.52 189.276 287.95 190.836 290.09 C 192.406 292.22 193.066 294.9 192.656 297.52 L 168.776 513.88 C 168.376 516.5 158.826 510.5 156.686 512.06 C 154.556 513.63 151.876 514.29 149.256 513.88 C 146.636 513.48 144.276 512.05 142.716 509.91 C 141.146 507.78 131.366 505.1 131.776 502.48 L 172.896 294.48 Z " fill="rgb(255,238,0)" fill-opacity="0.49" />
	<line x1="188.776" y1="90" x2="188.776" y2="210" stroke-width="15" stroke="rgb(255,238,0)" stroke-opacity="0.49" stroke-linejoin="round" stroke-linecap="round" stroke-miterlimit="3" />
	<line x1="646.776" y1="117" x2="646.776" y2="209" stroke-width="15" stroke="rgb(255,238,0)" stroke-opacity="0.49" stroke-linejoin="round" stroke-linecap="round" stroke-miterlimit="3" />
	<line x1="646.776" y1="309" x2="646.776" y2="401" stroke-width="15" stroke="rgb(255,238,0)" stroke-opacity="0.49" stroke-linejoin="round" stroke-linecap="round" stroke-miterlimit="3" />
	<line x1="504.776" y1="259" x2="596.776" y2="259" stroke-width="15" stroke="rgb(255,238,0)" stroke-opacity="0.49" stroke-linejoin="round" stroke-linecap="round" stroke-miterlimit="3" />
	<line x1="696.776" y1="259" x2="788.776" y2="259" stroke-width="15" stroke="rgb(255,238,0)" stroke-opacity="0.49" stroke-linejoin="round" stroke-linecap="round" stroke-miterlimit="3" />
	<line x1="230.776" y1="288" x2="334.776" y2="409" stroke-width="15" stroke="rgb(255,238,0)" stroke-opacity="0.49" stroke-linejoin="round" stroke-linecap="round" stroke-miterlimit="3" />
	<radialGradient id="_rgradient_19" fx="0.3793103448275872" fy="0.34482758620689646" cx="0.5" cy="0.5" r="0.5" gradientTransform="matrix(79,0,0,79,111.776,468)" gradientUnits="userSpaceOnUse">
		<stop offset="0%" stop-opacity="1" style="stop-color:rgb(235,235,235)" />
		<stop offset="98.69565217391305%" stop-opacity="1" style="stop-color:rgb(117,117,117)" />
	</radialGradient>
	<circle cx="151.27627127716823" cy="507.4999999999999" r="39.50000000000001" fill="url(#_rgradient_19)" />
</svg>
